<svg xmlns="http://www.w3.org/2000/svg" width="128" height="128">
    <path fill="#B0BEC5"
          d="M64 0C28.656 0 0 28.656 0 64s28.656 64 64 64 64-28.656 64-64S99.344 0 64 0zm0 120C33.125 120 8 94.875 8 64S33.125 8 64 8s56 25.125 56 56-25.125 56-56 56z"/>
    <path fill="#8BC34A"
          d="M32.891 69.656L49.86 86.625c3.117 3.125 8.188 3.125 11.313 0l33.938-33.938c3.125-3.125 3.125-8.195 0-11.313-3.117-3.125-8.188-3.125-11.313 0L55.516 69.656 44.203 58.344c-3.125-3.125-8.195-3.125-11.313 0-3.124 3.125-3.124 8.195.001 11.312z"/>
</svg>