<svg xmlns="http://www.w3.org/2000/svg" width="128" height="128">
    <path fill="#FFA000"
          d="M64 32c-4.414 0-8 3.586-8 8v40c0 4.414 3.586 8 8 8 4.415 0 8-3.586 8-8V40c0-4.414-3.586-8-8-8zm0 64c-4.414 0-8 3.586-8 8s3.586 8 8 8c4.415 0 8-3.586 8-8s-3.586-8-8-8z"/>
    <path fill="#B0BEC5"
          d="M126.314 104.844l-48.001-96A15.997 15.997 0 0064 0a15.998 15.998 0 00-14.313 8.844l-48.001 96a16.017 16.017 0 00.703 15.57A16.007 16.007 0 0015.999 128h96.002a16.008 16.008 0 0013.61-7.586 16.017 16.017 0 00.703-15.57zm-7.508 11.359a8.048 8.048 0 01-6.805 3.797H15.999a8.06 8.06 0 01-6.805-3.789 7.956 7.956 0 01-.352-7.789l48.001-96A7.95 7.95 0 0164 8a7.95 7.95 0 017.157 4.422l48.001 95.992a7.96 7.96 0 01-.352 7.789z"/>
</svg>