<?xml version="1.0" encoding="utf-8"?>
<!-- Generator: Adobe Illustrator 21.1.0, SVG Export Plug-In . SVG Version: 6.00 Build 0)  -->
<svg version="1.1" id="Layer_1" xmlns="http://www.w3.org/2000/svg" xmlns:xlink="http://www.w3.org/1999/xlink" x="0px" y="0px"
	 viewBox="0 0 38 44" style="enable-background:new 0 0 38 44;" xml:space="preserve">
<style type="text/css">
	.st0{fill:#4B434D;}
</style>
<g id="outline_6_">
	<g>
		<path class="st0" d="M11.7,16.3c-0.4-0.4-1-0.4-1.4,0L9,17.6l-1.4-1.4c-0.4-0.4-1-0.4-1.4,0c-0.4,0.4-0.4,1,0,1.4L7.6,19l-1.4,1.4
			c-0.4,0.4-0.4,1,0,1.4c0.4,0.4,1,0.4,1.4,0L9,20.4l1.4,1.4c0.4,0.4,1,0.4,1.4,0c0.4-0.4,0.4-1,0-1.4L10.4,19l1.4-1.4
			C12.1,17.3,12.1,16.7,11.7,16.3z M11.7,26.3c-0.4-0.4-1-0.4-1.4,0L9,27.6l-1.4-1.4c-0.4-0.4-1-0.4-1.4,0c-0.4,0.4-0.4,1,0,1.4
			L7.6,29l-1.4,1.4c-0.4,0.4-0.4,1,0,1.4c0.4,0.4,1,0.4,1.4,0L9,30.4l1.4,1.4c0.4,0.4,1,0.4,1.4,0c0.4-0.4,0.4-1,0-1.4L10.4,29
			l1.4-1.4C12.1,27.3,12.1,26.7,11.7,26.3z M37,4h-5V2c0-1.1-0.9-2-2-2h-2c-1.1,0-2,0.9-2,2v2H12V2c0-1.1-0.9-2-2-2H8
			C6.9,0,6,0.9,6,2v2H1C0.4,4,0,4.4,0,5v38c0,0.6,0.4,1,1,1h36c0.6,0,1-0.4,1-1V5C38,4.4,37.6,4,37,4z M28,3c0-0.6,0.4-1,1-1
			s1,0.4,1,1v4c0,0.6-0.4,1-1,1s-1-0.4-1-1V3z M8,3c0-0.6,0.4-1,1-1s1,0.4,1,1v4c0,0.6-0.4,1-1,1S8,7.6,8,7V3z M36,42H2V6h4v2
			c0,1.1,0.9,2,2,2h2c1.1,0,2-0.9,2-2V6h14v2c0,1.1,0.9,2,2,2h2c1.1,0,2-0.9,2-2V6h4V42z M26,28H16c-0.6,0-1,0.4-1,1s0.4,1,1,1h10
			c0.6,0,1-0.4,1-1S26.6,28,26,28z M30,18H16c-0.6,0-1,0.4-1,1s0.4,1,1,1h14c0.6,0,1-0.4,1-1S30.6,18,30,18z"/>
	</g>
</g>
</svg>
