<?xml version="1.0" encoding="utf-8"?>
<!-- Generator: Adobe Illustrator 21.1.0, SVG Export Plug-In . SVG Version: 6.00 Build 0)  -->
<svg version="1.1" id="Layer_1" xmlns="http://www.w3.org/2000/svg" xmlns:xlink="http://www.w3.org/1999/xlink" x="0px" y="0px"
	 viewBox="0 0 14 14" style="enable-background:new 0 0 14 14;" xml:space="preserve">
<style type="text/css">
	.st0{fill:#8E42A4;}
</style>
<path class="st0" d="M0,11.5l0,1.8C0,13.7,0.3,14,0.7,14h1.8c0.2,0,0.4-0.1,0.5-0.2l0.5-0.5v-1.4h1.4v-1.4h1.4l1-1
	c0.5,0.2,1.1,0.3,1.8,0.3c2.7,0,4.9-2.2,4.9-4.9S11.8,0,9.1,0S4.2,2.2,4.2,4.9c0,0.6,0.1,1.2,0.3,1.8L0.2,11C0.1,11.1,0,11.3,0,11.5
	z M8.4,3.8c0-1,0.8-1.8,1.8-1.8s1.8,0.8,1.8,1.8s-0.8,1.8-1.8,1.8S8.4,4.8,8.4,3.8z"/>
</svg>
