<?xml version="1.0" encoding="utf-8"?>
<!-- Generator: Adobe Illustrator 21.1.0, SVG Export Plug-In . SVG Version: 6.00 Build 0)  -->
<svg version="1.1" id="Layer_1" xmlns="http://www.w3.org/2000/svg" xmlns:xlink="http://www.w3.org/1999/xlink" x="0px" y="0px"
	 viewBox="0 0 18 14" style="enable-background:new 0 0 18 14;" xml:space="preserve">
<style type="text/css">
	.st0{fill:#8E42A4;}
</style>
<path class="st0" d="M13.9,7c0,0.2-0.1,0.4-0.2,0.5l-6.4,5.9c-0.1,0.1-0.3,0.2-0.5,0.2s-0.4-0.1-0.5-0.2S6,13.1,6,12.9V9.8H0.8
	c-0.2,0-0.4-0.1-0.5-0.2S0,9.3,0,9.1V4.9c0-0.2,0.1-0.4,0.2-0.5c0.1-0.1,0.3-0.2,0.5-0.2H6V1c0-0.2,0.1-0.4,0.2-0.5s0.3-0.2,0.5-0.2
	s0.4,0.1,0.5,0.2l6.4,5.9C13.8,6.6,13.9,6.8,13.9,7z M18,3.2v7.7c0,0.9-0.3,1.6-1,2.2c-0.7,0.6-1.5,0.9-2.4,0.9h-3.8
	c-0.1,0-0.2,0-0.3-0.1c-0.1-0.1-0.1-0.2-0.1-0.2c0,0,0-0.1,0-0.2c0-0.1,0-0.2,0-0.3c0-0.1,0-0.2,0-0.3c0-0.1,0.1-0.2,0.1-0.2
	c0.1,0,0.1-0.1,0.2-0.1h3.8c0.5,0,1-0.2,1.3-0.5c0.4-0.3,0.6-0.8,0.6-1.2V3.2c0-0.5-0.2-0.9-0.6-1.2c-0.4-0.3-0.8-0.5-1.3-0.5H11
	l-0.1,0l-0.1,0l-0.1-0.1l-0.1-0.1l0-0.1c0,0,0-0.1,0-0.2s0-0.2,0-0.3s0-0.2,0-0.3s0.1-0.2,0.1-0.2S10.8,0,10.9,0h3.8
	c0.9,0,1.7,0.3,2.4,0.9S18,2.3,18,3.2z"/>
</svg>
