<?xml version="1.0" encoding="utf-8"?>
<!-- Generator: Adobe Illustrator 21.1.0, SVG Export Plug-In . SVG Version: 6.00 Build 0)  -->
<svg version="1.1" id="Layer_1" xmlns="http://www.w3.org/2000/svg" xmlns:xlink="http://www.w3.org/1999/xlink" x="0px" y="0px"
	 viewBox="0 0 14 14" style="enable-background:new 0 0 14 14;" xml:space="preserve">
<style type="text/css">
	.st0{fill:#8E42A4;}
</style>
<g transform="translate(96 384)">
	<path class="st0" d="M-82.1-372.8l-0.1-0.2c-0.2-0.5-0.7-1-1.2-1.1l-1.8-0.5c-0.5-0.1-1.2,0-1.6,0.4l-0.7,0.7c-2.4-0.7-4.3-2.6-5-5
		l0.7-0.7c0.4-0.4,0.5-1.1,0.4-1.6l-0.5-1.8c-0.1-0.5-0.6-1-1.1-1.2l-0.2-0.1c-0.5-0.2-1.2,0-1.6,0.4l-1,1c-0.2,0.2-0.3,0.7-0.3,0.7
		c0,3.2,1.2,6.2,3.4,8.4c2.2,2.2,5.3,3.5,8.4,3.4c0,0,0.5-0.1,0.7-0.3l1-1C-82.1-371.6-81.9-372.3-82.1-372.8L-82.1-372.8z"/>
</g>
</svg>
